<svg width="1037" height="1037" viewBox="0 0 1037 1037" fill="none" xmlns="http://www.w3.org/2000/svg">
                        <path d="M67.2129 422.481H192.037C201.635 422.481 201.639 460.889 201.639 480.093V614.518H77.7749C67.2091 614.518 67.2129 576.111 67.2129 556.907C67.2129 537.704 67.2091 499.296 76.8147 499.296H182.435" stroke="#F6F4F2" stroke-width="40" stroke-linecap="square"></path>
                        <path d="M854.565 537.704H960.185C969.787 537.704 969.787 499.296 969.787 480.093C969.787 460.889 969.787 422.481 960.185 422.481H844.963C835.361 422.481 835.361 460.889 835.361 480.093V556.907C835.361 576.111 835.361 614.518 844.963 614.518H969.787" stroke="#F6F4F2" stroke-width="40" stroke-linecap="square"></path>
                        <path d="M451.287 499.296V614.519" stroke="#F6F4F2" stroke-width="40" stroke-linecap="square"></path>
                        <path d="M451.287 422.673V423.25" stroke="#F6F4F2" stroke-width="40" stroke-linecap="square"></path>
                        <path d="M393.676 614.518V480.093C393.676 460.889 393.676 422.481 384.074 422.481H268.852C259.25 422.481 259.25 460.889 259.25 480.093V614.518" stroke="#F6F4F2" stroke-width="40" stroke-linecap="square"></path>
                        <path d="M777.75 614.518V480.093C777.75 460.889 777.75 422.481 768.148 422.481H518.5C508.898 422.481 508.898 460.889 508.898 480.093V614.518" stroke="#F6F4F2" stroke-width="40" stroke-linecap="square"></path>
                    </svg>