<svg width="256" height="256" viewBox="0 0 256 256" fill="none" xmlns="http://www.w3.org/2000/svg">
                        <path d="M128 256C198.692 256 256 198.692 256 128C256 57.3075 198.692 0 128 0C57.3075 0 0 57.3075 0 128C0 198.692 57.3075 256 128 256Z" fill="#2B2E3A"></path>
                        <path d="M100.502 71.69C74.4969 66.954 53.9349 71.911 45.7399 86.105C39.6249 96.697 41.3729 110.74 49.9799 125.751C50.1498 126.063 50.3803 126.337 50.6578 126.559C50.9354 126.78 51.2543 126.944 51.596 127.041C51.9377 127.137 52.2953 127.165 52.6477 127.121C53.0001 127.078 53.3403 126.965 53.6483 126.788C53.9563 126.611 54.226 126.375 54.4414 126.093C54.6569 125.81 54.8138 125.488 54.903 125.144C54.9922 124.801 55.0119 124.443 54.9608 124.091C54.9098 123.74 54.7891 123.402 54.6059 123.098C46.8539 109.576 45.3449 97.457 50.3589 88.772C57.1669 76.981 75.5069 72.559 99.5459 76.937C100.237 77.052 100.945 76.8907 101.518 76.4879C102.091 76.0851 102.482 75.4732 102.608 74.7842C102.733 74.0953 102.583 73.3846 102.189 72.8057C101.795 72.2267 101.189 71.826 100.502 71.69V71.69ZM63.5029 143.997C74.0179 155.552 87.6789 166.391 103.259 175.385C140.982 197.165 181.142 202.986 200.934 189.491C201.23 189.297 201.484 189.045 201.682 188.751C201.88 188.458 202.017 188.127 202.086 187.78C202.155 187.433 202.154 187.075 202.083 186.728C202.012 186.381 201.873 186.052 201.673 185.759C201.474 185.466 201.218 185.216 200.921 185.024C200.623 184.831 200.291 184.7 199.942 184.637C199.594 184.574 199.236 184.581 198.891 184.658C198.545 184.735 198.218 184.88 197.929 185.085C180.215 197.163 142.067 191.633 105.926 170.767C90.8119 162.041 77.5829 151.545 67.4479 140.407C67.2126 140.146 66.9281 139.935 66.6109 139.784C66.2936 139.634 65.9498 139.548 65.5991 139.53C65.2484 139.513 64.8977 139.565 64.5673 139.684C64.2368 139.803 63.933 139.985 63.6734 140.222C63.4137 140.458 63.2032 140.743 63.054 141.061C62.9049 141.379 62.8199 141.723 62.8041 142.074C62.7882 142.425 62.8418 142.775 62.9617 143.105C63.0816 143.435 63.2655 143.738 63.5029 143.997V143.997Z" fill="#9FEAF9"></path>
                        <path d="M194.62 140.753C211.648 120.637 217.593 100.405 209.415 86.241C203.398 75.818 190.677 70.315 173.77 70.095C173.069 70.096 172.397 70.3727 171.899 70.8653C171.4 71.3579 171.116 72.0268 171.107 72.7275C171.098 73.4281 171.365 74.1041 171.85 74.6095C172.336 75.1148 173 75.4088 173.701 75.428C188.906 75.626 199.866 80.367 204.797 88.908C211.589 100.673 206.287 118.715 190.549 137.307C190.318 137.574 190.142 137.883 190.032 138.219C189.921 138.554 189.879 138.907 189.906 139.259C189.933 139.611 190.03 139.953 190.191 140.267C190.351 140.582 190.573 140.861 190.842 141.088C191.111 141.316 191.423 141.489 191.759 141.595C192.095 141.702 192.45 141.741 192.801 141.709C193.152 141.678 193.494 141.578 193.806 141.413C194.118 141.249 194.395 141.025 194.62 140.753ZM150.859 72.578C135.463 75.877 119.075 82.327 103.337 91.413C64.3948 113.896 38.9918 147.049 42.5198 171.088C42.5669 171.438 42.6829 171.775 42.8611 172.079C43.0394 172.384 43.2764 172.65 43.5583 172.863C43.8402 173.075 44.1615 173.229 44.5034 173.317C44.8454 173.404 45.2014 173.423 45.5506 173.371C45.8998 173.32 46.2354 173.2 46.5378 173.018C46.8403 172.836 47.1036 172.596 47.3126 172.311C47.5215 172.027 47.6719 171.704 47.755 171.361C47.8382 171.018 47.8524 170.662 47.7968 170.313C44.6638 148.969 68.7438 117.544 106.004 96.032C121.271 87.217 137.139 80.972 151.976 77.793C152.323 77.7245 152.653 77.5877 152.947 77.3903C153.241 77.193 153.492 76.9392 153.687 76.6437C153.882 76.3481 154.016 76.0168 154.081 75.669C154.147 75.3212 154.142 74.9638 154.068 74.6177C153.994 74.2717 153.852 73.9438 153.649 73.6533C153.447 73.3628 153.189 73.1154 152.891 72.9255C152.592 72.7357 152.259 72.6072 151.91 72.5475C151.561 72.4878 151.204 72.4982 150.859 72.578V72.578Z" fill="#9FEAF9"></path>
                        <path d="M87.7699 187.753C96.6739 212.613 111.239 227.92 127.617 227.92C139.562 227.92 150.613 219.777 159.231 205.442C159.417 205.142 159.542 204.807 159.599 204.458C159.655 204.109 159.641 203.753 159.558 203.409C159.475 203.065 159.325 202.742 159.115 202.457C158.906 202.172 158.642 201.931 158.34 201.749C158.037 201.567 157.7 201.447 157.351 201.396C157.001 201.345 156.644 201.364 156.302 201.452C155.96 201.539 155.638 201.695 155.356 201.908C155.074 202.121 154.838 202.388 154.66 202.694C146.915 215.577 137.402 222.586 127.617 222.586C114.012 222.586 101.021 208.934 92.7919 185.956C92.6792 185.619 92.5005 185.309 92.2662 185.042C92.032 184.776 91.7469 184.559 91.4277 184.404C91.1085 184.249 90.7616 184.159 90.4073 184.14C90.053 184.121 89.6984 184.173 89.3643 184.292C89.0302 184.412 88.7234 184.597 88.4617 184.836C88.2 185.076 87.9888 185.365 87.8404 185.688C87.692 186.01 87.6095 186.359 87.5975 186.713C87.5856 187.068 87.6445 187.421 87.7709 187.753H87.7699ZM169.092 182.89C173.702 168.162 176.177 151.172 176.177 133.467C176.177 89.2879 160.714 51.204 138.69 41.425C138.047 41.1555 137.323 41.1488 136.675 41.4063C136.027 41.6639 135.505 42.1651 135.222 42.8027C134.939 43.4402 134.917 44.1632 135.161 44.8168C135.404 45.4704 135.895 46.0024 136.526 46.299C156.169 55.022 170.843 91.165 170.843 133.467C170.843 150.644 168.446 167.097 164.003 181.297C163.893 181.633 163.85 181.987 163.878 182.339C163.906 182.692 164.003 183.035 164.165 183.349C164.326 183.664 164.549 183.943 164.819 184.17C165.09 184.398 165.403 184.57 165.74 184.675C166.077 184.781 166.432 184.818 166.784 184.785C167.136 184.752 167.478 184.65 167.79 184.484C168.102 184.318 168.378 184.091 168.601 183.818C168.825 183.544 168.992 183.229 169.093 182.89H169.092ZM219.316 180.278C219.316 173.229 213.602 167.515 206.553 167.515C199.504 167.515 193.79 173.229 193.79 180.278C193.79 187.327 199.504 193.041 206.553 193.041C213.602 193.041 219.316 187.327 219.316 180.278ZM213.983 180.278C213.983 181.254 213.791 182.22 213.417 183.121C213.044 184.023 212.497 184.842 211.807 185.532C211.117 186.222 210.298 186.769 209.396 187.142C208.495 187.516 207.529 187.708 206.553 187.708C205.577 187.708 204.611 187.516 203.71 187.142C202.808 186.769 201.989 186.222 201.299 185.532C200.609 184.842 200.062 184.023 199.688 183.121C199.315 182.22 199.123 181.254 199.123 180.278C199.123 178.307 199.906 176.418 201.299 175.024C202.692 173.631 204.582 172.848 206.553 172.848C208.523 172.848 210.413 173.631 211.807 175.024C213.2 176.418 213.983 178.307 213.983 180.278ZM48.4969 193.041C55.5469 193.041 61.2609 187.327 61.2609 180.278C61.2609 173.229 55.5459 167.515 48.4969 167.515C41.4489 167.515 35.7339 173.229 35.7339 180.278C35.7339 187.327 41.4489 193.041 48.4969 193.041ZM48.4969 187.708C46.5263 187.708 44.6365 186.925 43.2431 185.532C41.8497 184.138 41.0669 182.249 41.0669 180.278C41.0669 178.307 41.8497 176.418 43.2431 175.024C44.6365 173.631 46.5263 172.848 48.4969 172.848C50.4674 172.848 52.3573 173.631 53.7507 175.024C55.1441 176.418 55.9269 178.307 55.9269 180.278C55.9269 182.249 55.1441 184.138 53.7507 185.532C52.3573 186.925 50.4674 187.708 48.4969 187.708V187.708Z" fill="#9FEAF9"></path>
                        <path d="M127.617 54.444C134.666 54.444 140.38 48.73 140.38 41.681C140.38 34.632 134.666 28.918 127.617 28.918C120.568 28.918 114.854 34.632 114.854 41.681C114.854 48.73 120.568 54.444 127.617 54.444V54.444ZM127.617 49.111C125.646 49.111 123.757 48.3282 122.363 46.9348C120.97 45.5414 120.187 43.6515 120.187 41.681C120.187 39.7104 120.97 37.8206 122.363 36.4272C123.757 35.0338 125.646 34.251 127.617 34.251C129.588 34.251 131.477 35.0338 132.871 36.4272C134.264 37.8206 135.047 39.7104 135.047 41.681C135.047 43.6515 134.264 45.5414 132.871 46.9348C131.477 48.3282 129.588 49.111 127.617 49.111V49.111ZM129.566 142.493C124.581 143.57 119.67 140.402 118.591 135.417C118.074 133.023 118.529 130.522 119.856 128.464C121.183 126.406 123.273 124.959 125.667 124.441C130.652 123.364 135.563 126.532 136.643 131.517C137.72 136.502 134.552 141.414 129.566 142.493Z" fill="#9FEAF9"></path>
                    </svg>