<svg width="256" height="256" viewBox="0 0 256 256" fill="none" xmlns="http://www.w3.org/2000/svg">
                        <path fill-rule="evenodd" clip-rule="evenodd" d="M127.789 194.045C114.496 194.045 104.224 192.048 99.2842 190.858C95.9063 190.044 93.1939 189.202 91.1334 188.337L97.7213 199.592L100.298 234.76C100.298 238.703 112.823 241.899 128.272 241.899C143.722 241.899 156.246 238.703 156.246 234.76L158.287 199.209L164.52 188.304C162.451 189.18 159.714 190.034 156.294 190.858C151.355 192.048 141.083 194.045 127.789 194.045ZM164.734 79.6068C154.977 80.9695 142.028 81.7203 128.272 81.7203C114.516 81.7203 101.567 80.9695 91.8106 79.6068C86.9776 78.9319 83.1539 78.1357 80.4456 77.2418C79.7996 77.028 78.7048 76.6635 77.6513 76.0828L83.6963 131.717C83.9772 130.759 84.2899 129.802 84.6367 128.849C85.3463 126.895 86.1673 124.984 87.0989 123.118C88.0311 121.253 89.0458 119.489 90.1429 117.828C91.2394 116.167 92.4071 114.638 93.6444 113.24C94.8823 111.843 96.1519 110.642 97.4557 109.635C98.7589 108.629 100.075 107.842 101.402 107.276C102.731 106.709 104.047 106.425 105.35 106.425C106.851 106.425 108.303 106.836 109.706 107.657C111.108 108.477 112.419 109.806 113.64 111.643C113.921 112.053 114.098 112.469 114.172 112.889C114.247 113.309 114.283 113.705 114.283 114.076C114.283 114.955 114.073 115.649 113.653 116.157C113.232 116.665 112.733 116.919 112.156 116.919C111.627 116.919 111.136 116.64 110.683 116.084C110.229 115.527 109.722 114.731 109.161 113.695C108.632 112.757 108.051 112.078 107.416 111.658C106.781 111.238 106.092 111.028 105.35 111.028C104.195 111.028 102.962 111.506 101.65 112.464C100.338 113.421 99.0392 114.686 97.7531 116.259C96.4658 117.833 95.2326 119.63 94.0531 121.653C92.8735 123.675 91.8294 125.746 90.922 127.866C90.0145 129.988 89.2937 132.079 88.7572 134.14C88.2207 136.201 87.9528 138.052 87.9528 139.694C87.9528 140.241 87.9905 140.804 88.0641 141.379C88.1389 141.956 88.2784 142.478 88.4851 142.948C88.6907 143.417 88.9716 143.802 89.3261 144.104C89.6812 144.408 90.1305 144.559 90.6746 144.559C91.2853 144.559 91.9778 144.354 92.754 143.944C93.529 143.534 94.3334 142.996 95.1661 142.332C95.9994 141.668 96.8368 140.916 97.6783 140.075C98.5204 139.235 99.3036 138.385 100.029 137.525C100.755 136.666 101.398 135.839 101.959 135.048C102.52 134.257 102.941 133.568 103.222 132.981L105.523 126.093C105.803 125.351 106.17 124.824 106.624 124.511C107.078 124.198 107.544 124.042 108.023 124.042C108.253 124.042 108.484 124.081 108.715 124.159C108.947 124.237 109.152 124.36 109.334 124.525C109.516 124.692 109.66 124.906 109.767 125.17C109.874 125.434 109.928 125.742 109.928 126.093C109.928 127.031 109.845 127.91 109.68 128.731C109.516 129.553 109.305 130.353 109.049 131.135C108.794 131.916 108.509 132.703 108.195 133.494C107.882 134.286 107.576 135.111 107.28 135.972C107.214 136.07 107.095 136.376 106.921 136.894C106.748 137.413 106.538 138.063 106.29 138.844C106.043 139.626 105.774 140.5 105.486 141.467C105.197 142.435 104.9 143.421 104.595 144.428C104.29 145.434 103.997 146.421 103.717 147.389C103.436 148.356 103.184 149.23 102.962 150.012C102.739 150.793 102.554 151.447 102.405 151.976C102.256 152.503 102.166 152.815 102.133 152.914C102.05 153.226 101.918 153.573 101.737 153.954C101.556 154.335 101.341 154.697 101.093 155.038C100.846 155.38 100.574 155.664 100.276 155.888C99.9797 156.113 99.6746 156.226 99.3608 156.226C98.8331 156.226 98.4492 156.049 98.2107 155.699C97.971 155.346 97.852 154.702 97.852 153.764V153.354C97.852 153.216 97.8597 153.069 97.8762 152.914C97.8921 152.601 98.0163 152.014 98.2478 151.154C98.4786 150.295 98.7548 149.323 99.0769 148.238C99.3985 147.154 99.7453 146.03 100.116 144.867C100.487 143.705 100.821 142.665 101.119 141.746C100.243 142.723 99.2954 143.695 98.2725 144.663C97.249 145.63 96.2014 146.499 95.1296 147.271C94.0566 148.043 92.976 148.673 91.8877 149.162C90.7989 149.65 89.7513 149.895 88.7448 149.895C87.59 149.895 86.596 149.641 85.7621 149.132C85.6119 149.04 85.47 148.937 85.3287 148.834L88.6924 184.102C89.5681 186.297 106.054 191.689 127.789 191.689C149.535 191.689 166.027 186.291 166.888 184.098L171.72 142.168C171.32 142.535 170.93 142.894 170.558 143.241C169.172 144.53 167.864 145.639 166.635 146.567C165.407 147.495 164.206 148.214 163.035 148.721C161.863 149.23 160.609 149.484 159.273 149.484C158.019 149.484 157.049 149.21 156.365 148.663C155.681 148.117 155.338 147.365 155.338 146.406V146.187C155.338 146.118 155.346 146.035 155.363 145.937C155.428 145.352 155.685 144.676 156.13 143.915C156.576 143.152 157.112 142.361 157.738 141.541C158.365 140.72 159.033 139.889 159.743 139.049C160.452 138.209 161.108 137.413 161.711 136.66C162.313 135.909 162.811 135.22 163.207 134.594C163.604 133.968 163.802 133.461 163.802 133.07C163.802 132.835 163.719 132.65 163.555 132.512C163.389 132.377 163.116 132.307 162.738 132.307C162.078 132.307 161.397 132.479 160.697 132.82C159.995 133.162 159.301 133.622 158.617 134.198C157.932 134.775 157.264 135.435 156.612 136.177C155.961 136.919 155.351 137.691 154.781 138.492C154.212 139.294 153.693 140.1 153.222 140.911C152.752 141.722 152.352 142.469 152.022 143.152C151.923 143.368 151.783 143.671 151.601 144.061C151.419 144.452 151.221 144.892 151.007 145.381C150.792 145.869 150.565 146.373 150.326 146.889C150.087 147.408 149.869 147.897 149.671 148.356C149.473 148.815 149.296 149.224 149.14 149.586C148.982 149.947 148.871 150.197 148.805 150.334C148.722 150.51 148.586 150.841 148.397 151.33C148.207 151.819 147.988 152.391 147.741 153.045C147.494 153.699 147.233 154.388 146.961 155.112C146.69 155.834 146.433 156.519 146.194 157.164C145.954 157.808 145.744 158.375 145.563 158.864C145.382 159.351 145.265 159.684 145.216 159.86C145.052 160.368 144.857 160.846 144.635 161.297C144.412 161.746 144.157 162.142 143.868 162.484C143.579 162.826 143.25 163.099 142.878 163.304C142.506 163.51 142.09 163.612 141.629 163.612C141.034 163.612 140.544 163.47 140.156 163.187C139.769 162.904 139.574 162.361 139.574 161.56C139.574 161.169 139.624 160.769 139.723 160.359C139.822 159.949 139.946 159.542 140.094 159.142C140.243 158.741 140.396 158.351 140.552 157.97C140.709 157.588 140.853 157.223 140.985 156.87C141.876 154.916 142.784 152.958 143.707 150.993C144.631 149.03 145.517 147.086 146.368 145.161C146.544 144.759 146.707 144.366 146.88 143.967C146.828 144.017 146.777 144.07 146.726 144.12C145.653 145.156 144.586 146.069 143.522 146.86C142.457 147.652 141.401 148.282 140.355 148.751C139.306 149.22 138.288 149.455 137.297 149.455C136.621 149.455 136.056 149.347 135.603 149.132C135.149 148.917 134.787 148.624 134.514 148.253C134.241 147.882 134.047 147.442 133.932 146.934C133.893 146.76 133.869 146.579 133.843 146.398C133.554 146.624 133.261 146.843 132.967 147.052C131.944 147.774 130.938 148.356 129.948 148.795C128.958 149.235 128.067 149.455 127.276 149.455C126.483 149.455 125.84 149.191 125.344 148.663C124.85 148.136 124.603 147.237 124.603 145.967C124.603 145.067 124.735 144.022 124.998 142.831C124.569 143.593 124.034 144.365 123.39 145.146C122.746 145.928 122.012 146.641 121.188 147.286C120.362 147.93 119.438 148.453 118.416 148.854C117.393 149.254 116.279 149.455 115.075 149.455C114.531 149.455 114.007 149.386 113.504 149.25C113 149.112 112.559 148.878 112.18 148.546C111.8 148.214 111.495 147.769 111.264 147.213C111.033 146.656 110.918 145.956 110.918 145.117C110.918 145.097 110.951 144.799 111.017 144.222C111.083 143.646 111.293 142.737 111.648 141.496C112.002 140.256 112.551 138.648 113.293 136.674C114.036 134.701 115.084 132.307 116.436 129.494C116.783 128.751 117.183 128.219 117.636 127.896C118.09 127.574 118.58 127.412 119.108 127.412C119.339 127.412 119.579 127.447 119.826 127.515C120.074 127.584 120.305 127.691 120.52 127.838C120.733 127.984 120.907 128.17 121.04 128.395C121.17 128.619 121.237 128.877 121.237 129.171C121.237 129.366 121.212 129.553 121.163 129.727C121.08 130.061 120.902 130.495 120.632 131.032C120.359 131.57 120.041 132.185 119.678 132.879C119.315 133.573 118.931 134.32 118.527 135.122C118.123 135.922 117.748 136.753 117.401 137.613C117.055 138.473 116.758 139.347 116.51 140.237C116.263 141.126 116.122 141.991 116.09 142.831C116.09 143.182 116.172 143.504 116.337 143.798C116.502 144.091 116.775 144.237 117.154 144.237C118.226 144.237 119.249 143.885 120.223 143.182C121.196 142.479 122.094 141.604 122.92 140.559C123.745 139.513 124.491 138.389 125.159 137.187C125.828 135.985 126.384 134.887 126.83 133.89C127.143 133.226 127.42 132.512 127.659 131.751C127.898 130.988 128.158 130.286 128.438 129.64C128.719 128.995 129.04 128.458 129.404 128.028C129.766 127.598 130.22 127.383 130.764 127.383C131.359 127.383 131.828 127.608 132.176 128.057C132.522 128.507 132.694 129.044 132.694 129.669C132.694 130.021 132.584 130.505 132.36 131.121C132.137 131.736 131.857 132.44 131.519 133.231C131.18 134.023 130.813 134.868 130.418 135.766C130.023 136.666 129.654 137.578 129.318 138.507C128.978 139.435 128.699 140.344 128.476 141.233C128.252 142.122 128.142 142.948 128.142 143.709C128.142 144.413 128.504 144.765 129.23 144.765C129.742 144.765 130.376 144.589 131.136 144.237C131.895 143.885 132.691 143.392 133.524 142.756C133.731 142.598 133.941 142.433 134.149 142.259C134.382 141.3 134.654 140.413 134.972 139.606C135.549 138.081 136.135 136.568 136.729 135.063C137.322 133.559 137.867 132.181 138.362 130.93L145.86 112.024C146.157 111.262 146.557 110.724 147.06 110.412C147.564 110.1 148.071 109.943 148.583 109.943C149.093 109.943 149.559 110.109 149.98 110.441C150.401 110.774 150.612 111.311 150.612 112.053C150.612 112.405 150.541 112.777 150.401 113.167C150.261 113.558 150.084 113.978 149.869 114.427C149.457 115.347 148.966 116.47 148.397 117.798C147.827 119.127 147.216 120.574 146.565 122.136C145.913 123.7 145.245 125.326 144.56 127.017C143.876 128.707 143.208 130.353 142.556 131.956C141.905 133.559 141.294 135.077 140.724 136.514C140.156 137.95 139.666 139.196 139.252 140.251C139.071 140.7 138.894 141.224 138.721 141.82C138.547 142.415 138.461 142.948 138.461 143.417C138.461 143.709 138.511 143.944 138.61 144.12C138.709 144.296 138.898 144.384 139.179 144.384C139.525 144.384 139.958 144.262 140.478 144.017C140.997 143.773 141.558 143.45 142.16 143.05C142.763 142.65 143.39 142.191 144.041 141.672C144.693 141.155 145.34 140.618 145.983 140.061C146.627 139.503 147.242 138.946 147.827 138.389C148.412 137.833 148.937 137.32 149.399 136.85C149.508 136.738 149.637 136.659 149.78 136.599C150.058 135.767 150.313 134.952 150.537 134.155C150.669 133.802 150.851 133.305 151.082 132.659C151.312 132.014 151.577 131.379 151.873 130.754C152.17 130.129 152.505 129.586 152.875 129.127C153.247 128.668 153.647 128.438 154.076 128.438C154.736 128.438 155.215 128.59 155.512 128.892C155.808 129.196 155.957 129.64 155.957 130.227C155.957 130.344 155.94 130.529 155.907 130.783C155.874 131.038 155.834 131.307 155.784 131.59C155.735 131.873 155.681 132.142 155.623 132.396C155.564 132.65 155.512 132.835 155.462 132.953C156.072 132.288 156.732 131.629 157.441 130.975C158.151 130.32 158.885 129.727 159.644 129.201C160.403 128.673 161.178 128.244 161.971 127.91C162.762 127.579 163.555 127.412 164.346 127.412C164.89 127.412 165.431 127.491 165.967 127.647C166.503 127.803 166.982 128.033 167.402 128.336C167.823 128.64 168.166 129.02 168.429 129.479C168.693 129.938 168.825 130.47 168.825 131.076C168.825 131.878 168.623 132.733 168.219 133.642C167.815 134.55 167.308 135.464 166.697 136.381C166.086 137.3 165.426 138.194 164.718 139.064C164.008 139.933 163.344 140.724 162.725 141.437C162.106 142.152 161.586 142.756 161.165 143.255C160.746 143.754 160.526 144.091 160.51 144.267C160.51 144.501 160.585 144.692 160.733 144.839C160.882 144.985 161.129 145.058 161.475 145.058C161.756 145.058 162.169 144.902 162.712 144.589C163.257 144.276 164.02 143.735 165.001 142.963C165.983 142.191 167.229 141.155 168.739 139.855C169.774 138.965 170.986 137.903 172.351 136.695L178.896 76.0811C177.842 76.6629 176.746 77.028 176.099 77.2418C173.391 78.1357 169.568 78.9319 164.734 79.6068ZM128.233 65.2255C99.9382 65.2255 77 68.3892 77 72.2922C77 76.1951 99.9382 79.3588 128.233 79.3588C156.529 79.3588 179.467 76.1951 179.467 72.2922C179.467 68.3892 156.529 65.2255 128.233 65.2255ZM148.69 74.3574C148.69 75.2731 145.964 76.0157 142.601 76.0157C139.239 76.0157 136.513 75.2731 136.513 74.3574C136.513 73.4411 139.239 72.6985 142.601 72.6985C145.964 72.6985 148.69 73.4411 148.69 74.3574Z" fill="#DA4648"></path>
                        <path fill-rule="evenodd" clip-rule="evenodd" d="M137.746 73.6242C137.716 73.6724 137.7 73.7215 137.7 73.7715C137.7 74.3645 139.895 74.8444 142.601 74.8444C145.308 74.8444 147.503 74.3645 147.503 73.7715L153.904 47.8143L179.364 20.9346C179.372 20.9264 179.38 20.9179 179.388 20.9091C179.927 20.2996 178.833 18.4134 177.019 16.7957C175.205 15.178 173.245 14.6303 172.636 15.2463C172.632 15.2509 172.627 15.2556 172.623 15.2603L145.459 43.844L137.746 73.6242Z" fill="#DA4648"></path>
                    </svg>