<svg width="256" height="256" viewBox="0 0 256 256" fill="none" xmlns="http://www.w3.org/2000/svg">
<g clip-path="url(#clip0_2_40)">
<path d="M126.872 28.5465L132.236 38.6216C133.442 40.4809 134.749 42.1265 136.287 43.6592C140.779 48.1503 145.043 52.8549 148.875 57.8925C157.964 69.8268 164.095 83.0803 168.473 97.4141C171.098 106.17 172.524 115.152 172.631 124.235C173.07 151.389 163.762 174.705 144.993 194.083C141.928 197.148 138.649 199.987 135.132 202.512C133.272 202.512 132.393 201.086 131.627 199.773C130.201 197.368 129.328 194.623 128.888 191.89C128.229 188.605 127.795 185.32 128.009 181.928V180.396C127.858 180.069 126.219 29.3191 126.872 28.5465Z" fill="#599636"/>
<path d="M126.872 28.2137C126.652 27.774 126.432 28.1069 126.212 28.3204C126.319 30.5189 125.553 32.4786 124.353 34.3504C123.034 36.2097 121.288 37.6355 119.535 39.1682C109.799 47.5976 102.136 57.7795 95.9996 69.1674C87.8339 84.4936 83.6255 100.919 82.4321 118.211C81.8856 124.449 84.4044 146.458 86.3704 152.809C91.7346 169.667 101.37 183.794 113.851 196.055C116.916 199.007 120.195 201.746 123.587 204.378C124.573 204.378 124.68 203.498 124.906 202.845C125.338 201.447 125.668 200.02 125.892 198.574L128.09 182.155L126.872 28.2137Z" fill="#6CAC48"/>
<path d="M132.236 209.183C132.456 206.67 133.662 204.585 134.975 202.506C133.656 201.959 132.676 200.873 131.91 199.66C131.25 198.567 130.704 197.255 130.276 196.049C128.744 191.451 128.417 186.627 127.977 181.928V179.083C127.431 179.523 127.318 183.241 127.318 183.794C126.998 188.76 126.339 193.698 125.346 198.574C125.019 200.546 124.799 202.512 123.587 204.264C123.587 204.484 123.587 204.704 123.694 205.031C125.666 210.835 126.206 216.745 126.539 222.769V224.967C126.539 227.593 126.432 227.04 128.612 227.92C129.491 228.246 130.471 228.359 131.35 229.013C132.01 229.013 132.117 228.466 132.117 228.026L131.79 224.415V214.34C131.683 212.581 132.01 210.835 132.23 209.189L132.236 209.183Z" fill="#C2BFBF"/>
</g>
<defs>
<clipPath id="clip0_2_40">
<rect width="201" height="201" fill="white" transform="translate(27 28)"/>
</clipPath>
</defs>
</svg>
