<svg width="256" height="256" viewBox="0 0 256 256" fill="none" xmlns="http://www.w3.org/2000/svg">
                        <g clip-path="url(#clip0_123_127)">
                            <path d="M126.836 191.046C126.146 191.036 125.471 190.843 124.88 190.488L118.687 186.814C117.756 186.302 118.222 186.116 118.501 186.023C119.483 185.708 120.422 185.271 121.295 184.721C121.37 184.687 121.452 184.673 121.534 184.681C121.616 184.69 121.694 184.719 121.76 184.767L126.51 187.558C126.602 187.611 126.706 187.639 126.813 187.639C126.919 187.639 127.023 187.611 127.115 187.558L145.741 176.86C145.812 176.805 145.87 176.735 145.91 176.654C145.95 176.574 145.972 176.485 145.974 176.395V154.907C145.967 154.813 145.938 154.722 145.889 154.641C145.841 154.561 145.774 154.492 145.694 154.442L127.069 143.744C126.99 143.703 126.902 143.682 126.813 143.682C126.724 143.682 126.636 143.703 126.557 143.744L107.931 154.442C107.851 154.492 107.785 154.561 107.736 154.641C107.688 154.722 107.659 154.813 107.651 154.907V176.349C107.646 176.452 107.67 176.554 107.719 176.644C107.768 176.734 107.842 176.809 107.931 176.86L113.053 179.791C115.847 181.186 117.523 179.558 117.523 177.93V156.767C117.517 156.696 117.525 156.625 117.548 156.557C117.571 156.49 117.607 156.428 117.656 156.375C117.704 156.323 117.763 156.281 117.828 156.252C117.893 156.224 117.964 156.209 118.035 156.209H120.363C120.439 156.202 120.515 156.212 120.586 156.237C120.657 156.263 120.721 156.303 120.775 156.357C120.828 156.41 120.869 156.475 120.894 156.546C120.92 156.617 120.929 156.692 120.922 156.767V177.93C120.922 181.651 118.92 183.744 115.428 183.744C114.357 183.744 113.519 183.744 111.144 182.581L106.255 179.791C105.661 179.443 105.169 178.947 104.826 178.352C104.483 177.757 104.301 177.082 104.299 176.395V154.953C104.297 154.266 104.477 153.589 104.82 152.993C105.163 152.397 105.658 151.902 106.255 151.558L124.88 140.814C125.475 140.496 126.138 140.33 126.813 140.33C127.487 140.33 128.151 140.496 128.745 140.814L147.371 151.512C147.974 151.859 148.473 152.362 148.817 152.967C149.161 153.572 149.337 154.258 149.326 154.953V176.349C149.329 177.031 149.154 177.703 148.819 178.298C148.485 178.893 148.002 179.391 147.417 179.744L128.792 190.488C128.196 190.827 127.521 191.004 126.836 191V191.046Z" fill="#679E63"></path>
                            <path d="M132.563 176.256C124.415 176.256 122.692 172.535 122.692 169.372C122.691 169.301 122.706 169.23 122.735 169.165C122.763 169.1 122.805 169.041 122.858 168.993C122.91 168.945 122.972 168.908 123.04 168.885C123.108 168.862 123.179 168.854 123.25 168.861H125.672C125.8 168.86 125.924 168.907 126.018 168.994C126.113 169.08 126.172 169.198 126.184 169.326C126.556 171.744 127.627 173 132.563 173C136.475 173 138.151 172.07 138.151 170.023C138.151 168.814 137.685 167.93 131.585 167.326C126.463 166.861 123.344 165.698 123.344 161.651C123.344 157.93 126.51 155.651 131.818 155.651C137.778 155.651 140.712 157.744 141.131 162.163C141.143 162.25 141.131 162.338 141.099 162.42C141.066 162.501 141.013 162.573 140.945 162.628C140.842 162.719 140.709 162.768 140.572 162.767H138.151C138.023 162.768 137.899 162.721 137.804 162.634C137.709 162.548 137.65 162.43 137.639 162.302C137.033 159.744 135.636 158.954 131.818 158.954C127.534 158.954 127.022 160.442 127.022 161.558C127.022 162.907 127.627 163.279 133.401 164.07C139.175 164.861 141.83 165.884 141.83 169.884C141.83 173.884 138.477 176.256 132.517 176.256H132.563ZM159.384 153.744C159.384 154.453 159.174 155.145 158.78 155.734C158.386 156.323 157.826 156.782 157.171 157.053C156.516 157.324 155.795 157.395 155.099 157.257C154.404 157.119 153.765 156.778 153.264 156.277C152.762 155.776 152.421 155.138 152.282 154.443C152.144 153.748 152.215 153.028 152.486 152.374C152.758 151.719 153.217 151.16 153.807 150.766C154.396 150.373 155.09 150.163 155.799 150.163C156.75 150.163 157.662 150.54 158.334 151.212C159.006 151.883 159.384 152.794 159.384 153.744V153.744ZM152.772 153.744C152.763 154.344 152.933 154.933 153.259 155.436C153.586 155.94 154.056 156.334 154.608 156.57C155.16 156.806 155.77 156.873 156.36 156.761C156.95 156.65 157.494 156.366 157.922 155.945C158.35 155.524 158.643 154.986 158.763 154.398C158.884 153.81 158.827 153.2 158.599 152.645C158.372 152.09 157.984 151.615 157.485 151.28C156.986 150.946 156.399 150.768 155.799 150.767C155.004 150.767 154.241 151.08 153.675 151.636C153.109 152.193 152.784 152.951 152.772 153.744V153.744ZM154.448 151.744H155.845C156.311 151.744 157.242 151.744 157.242 152.814C157.258 153.039 157.191 153.263 157.054 153.443C156.917 153.622 156.719 153.746 156.497 153.791C157.009 153.791 157.056 154.209 157.149 154.721C157.162 155.084 157.224 155.444 157.335 155.791H156.497L156.358 154.535C156.311 154.302 156.218 154.163 155.892 154.163H155.24V155.791H154.448V151.744ZM155.193 153.512H155.845C155.923 153.518 156 153.508 156.074 153.483C156.147 153.458 156.214 153.418 156.271 153.366C156.328 153.313 156.373 153.249 156.404 153.178C156.435 153.108 156.451 153.031 156.451 152.954C156.451 152.395 156.078 152.395 155.845 152.395H155.193V153.512Z" fill="#679E63"></path>
                            <path fill-rule="evenodd" clip-rule="evenodd" d="M69.236 107.093C69.2323 106.676 69.1184 106.267 68.9058 105.907C68.6933 105.548 68.3895 105.251 68.0253 105.047L48.2821 93.6977C47.9521 93.5217 47.5852 93.4261 47.2111 93.4186H46.9783C46.6045 93.4278 46.238 93.5233 45.9073 93.6977L26.2107 105.047C25.8396 105.255 25.5314 105.559 25.3184 105.927C25.1054 106.296 24.9955 106.714 25 107.14V137.651C25.0039 137.865 25.0668 138.074 25.1818 138.254C25.2968 138.435 25.4595 138.58 25.6519 138.674C25.8289 138.777 26.0296 138.83 26.234 138.83C26.4383 138.83 26.6391 138.777 26.816 138.674L38.5502 131.977C38.9181 131.765 39.2236 131.46 39.4361 131.092C39.6486 130.725 39.7606 130.308 39.7609 129.884V115.698C39.7599 115.285 39.8667 114.879 40.0709 114.52C40.275 114.161 40.5694 113.862 40.925 113.651L45.9539 110.721C46.3073 110.514 46.7084 110.402 47.118 110.395C47.5438 110.391 47.9625 110.504 48.3287 110.721L53.311 113.605C53.6666 113.815 53.961 114.115 54.1651 114.474C54.3693 114.832 54.4762 115.238 54.4752 115.651V129.884C54.4801 130.313 54.5991 130.733 54.82 131.1C55.041 131.468 55.3558 131.771 55.7324 131.977L67.3734 138.674C67.5558 138.785 67.7652 138.844 67.9788 138.844C68.1923 138.844 68.4017 138.785 68.5841 138.674C68.7647 138.57 68.9153 138.421 69.0213 138.242C69.1274 138.063 69.1853 137.859 69.1894 137.651L69.236 107.093ZM164.087 65.1396C163.903 65.0438 163.697 64.997 163.489 65.0037C163.282 65.0104 163.079 65.0703 162.902 65.1778C162.724 65.2853 162.577 65.4366 162.475 65.6172C162.372 65.7979 162.318 66.0018 162.318 66.2093V96.4419C162.308 96.5888 162.261 96.7307 162.179 96.8532C162.097 96.9756 161.984 97.0744 161.852 97.1396C161.73 97.2047 161.594 97.2388 161.456 97.2388C161.318 97.2388 161.182 97.2047 161.061 97.1396L156.125 94.3024C155.769 94.1027 155.368 93.9978 154.961 93.9978C154.553 93.9978 154.152 94.1027 153.797 94.3024L133.96 105.698C133.601 105.905 133.304 106.203 133.1 106.563C132.895 106.923 132.79 107.33 132.796 107.744V130.488C132.8 130.906 132.914 131.315 133.126 131.674C133.339 132.033 133.643 132.33 134.007 132.535L153.703 143.93C154.064 144.138 154.474 144.248 154.891 144.248C155.308 144.248 155.717 144.138 156.078 143.93L175.821 132.535C176.186 132.33 176.489 132.033 176.702 131.674C176.915 131.315 177.028 130.906 177.032 130.488V73.7442C177.024 73.3222 176.903 72.9101 176.682 72.5503C176.461 72.1906 176.148 71.8962 175.775 71.6977L164.087 65.1396ZM162.225 123C162.225 123.102 162.2 123.202 162.151 123.292C162.102 123.381 162.031 123.457 161.945 123.512L155.194 127.419C155.101 127.472 154.997 127.5 154.891 127.5C154.785 127.5 154.68 127.472 154.588 127.419L147.836 123.512C147.748 123.467 147.672 123.401 147.615 123.32C147.559 123.239 147.522 123.145 147.51 123.047V115.186C147.518 115.092 147.546 115.001 147.595 114.92C147.643 114.84 147.71 114.771 147.79 114.721L154.588 110.767C154.68 110.714 154.785 110.686 154.891 110.686C154.997 110.686 155.101 110.714 155.194 110.767L161.945 114.674C162.04 114.724 162.12 114.797 162.177 114.886C162.234 114.976 162.267 115.08 162.271 115.186L162.225 123ZM229.789 115C230.154 114.795 230.457 114.499 230.67 114.139C230.882 113.78 230.996 113.371 231 112.954V107.419C230.996 107.001 230.882 106.592 230.67 106.233C230.457 105.874 230.154 105.577 229.789 105.372L210.186 93.9768C209.825 93.7686 209.415 93.659 208.998 93.659C208.582 93.659 208.172 93.7686 207.811 93.9768L188.068 105.372C187.709 105.579 187.412 105.878 187.207 106.237C187.003 106.597 186.898 107.005 186.904 107.419V130.209C186.907 130.627 187.021 131.036 187.234 131.395C187.446 131.754 187.75 132.051 188.114 132.256L207.671 143.419C208.027 143.618 208.428 143.723 208.835 143.723C209.243 143.723 209.644 143.618 210 143.419L221.873 136.814C222.057 136.708 222.21 136.555 222.316 136.371C222.422 136.188 222.477 135.979 222.477 135.767C222.477 135.555 222.422 135.347 222.316 135.163C222.21 134.98 222.057 134.827 221.873 134.721L202.037 123.372C201.857 123.268 201.706 123.119 201.6 122.94C201.494 122.761 201.436 122.557 201.432 122.349V115.233C201.431 115.023 201.487 114.818 201.594 114.638C201.7 114.458 201.853 114.31 202.037 114.209L208.23 110.628C208.407 110.526 208.608 110.472 208.812 110.472C209.017 110.472 209.217 110.526 209.394 110.628L215.587 114.209C215.771 114.31 215.924 114.458 216.031 114.638C216.137 114.818 216.193 115.023 216.193 115.233V120.814C216.187 121.023 216.238 121.229 216.34 121.412C216.442 121.594 216.592 121.746 216.773 121.851C216.954 121.955 217.16 122.009 217.369 122.007C217.579 122.005 217.783 121.946 217.962 121.837L229.789 115Z" fill="white"></path>
                            <path fill-rule="evenodd" clip-rule="evenodd" d="M208.696 113.93C208.767 113.889 208.847 113.868 208.929 113.868C209.01 113.868 209.091 113.889 209.161 113.93L212.98 116.116C213.046 116.154 213.102 116.208 213.143 116.273C213.183 116.338 213.207 116.412 213.212 116.488V120.86C213.215 120.945 213.195 121.028 213.154 121.102C213.113 121.176 213.053 121.237 212.98 121.279L209.208 123.465C209.137 123.506 209.057 123.527 208.975 123.527C208.893 123.527 208.813 123.506 208.742 123.465L204.924 121.279C204.859 121.231 204.808 121.168 204.776 121.094C204.743 121.021 204.73 120.94 204.738 120.86V116.488C204.738 116.416 204.755 116.345 204.787 116.28C204.819 116.216 204.866 116.16 204.924 116.116L208.696 113.93Z" fill="#679E63"></path>
                            <path fill-rule="evenodd" clip-rule="evenodd" d="M102.203 94.1163C101.849 93.9121 101.448 93.8047 101.039 93.8047C100.631 93.8047 100.229 93.9121 99.8751 94.1163L80.1785 105.465C79.8197 105.672 79.5227 105.971 79.3181 106.33C79.1135 106.69 79.0086 107.098 79.0144 107.512V130.116C79.0086 130.53 79.1135 130.938 79.3181 131.297C79.5227 131.657 79.8197 131.956 80.1785 132.163L99.782 143.465C100.136 143.669 100.537 143.777 100.946 143.777C101.355 143.777 101.756 143.669 102.11 143.465L121.76 132.163C122.128 131.962 122.434 131.666 122.647 131.306C122.86 130.946 122.972 130.535 122.971 130.116V107.465C122.972 107.047 122.86 106.636 122.647 106.276C122.434 105.915 122.128 105.619 121.76 105.419L102.203 94.1163Z" fill="url(#paint0_linear_123_127)"></path>
                            <path d="M121.853 105.465L102.203 94.1162C102.013 94.0109 101.81 93.9326 101.598 93.8837L79.48 131.605C79.6672 131.823 79.8871 132.011 80.1319 132.163L99.8751 143.465C100.427 143.777 101.079 143.86 101.691 143.698L122.412 105.837C122.244 105.675 122.056 105.534 121.853 105.419V105.465Z" fill="url(#paint1_linear_123_127)"></path>
                            <path d="M99.1768 89.9302L98.8975 90.1162H99.27L99.1768 89.9302V89.9302Z" fill="url(#paint2_linear_123_127)"></path>
                            <path d="M121.854 132.163C122.136 132.003 122.384 131.79 122.584 131.534C122.784 131.279 122.931 130.987 123.018 130.674L101.458 93.8371C100.884 93.7248 100.289 93.8239 99.7821 94.1162L80.2717 105.372L101.365 143.791C101.679 143.741 101.979 143.63 102.25 143.465L121.854 132.163Z" fill="url(#paint3_linear_123_127)"></path>
                            <path d="M123.716 131.791L123.576 131.558V131.884L123.716 131.791Z" fill="url(#paint4_linear_123_127)"></path>
                            <path d="M121.853 132.163L102.25 143.465C101.979 143.63 101.679 143.741 101.365 143.791L101.738 144.488L123.576 131.884V131.558L123.018 130.628C122.937 130.949 122.792 131.25 122.592 131.513C122.392 131.777 122.141 131.998 121.853 132.163V132.163Z" fill="url(#paint5_linear_123_127)"></path>
                            <path d="M121.853 132.163L102.25 143.465C101.979 143.63 101.679 143.741 101.365 143.791L101.738 144.488L123.576 131.884V131.558L123.018 130.628C122.937 130.949 122.792 131.25 122.592 131.513C122.392 131.777 122.141 131.998 121.853 132.163V132.163Z" fill="url(#paint6_linear_123_127)"></path>
                        </g>
                        <defs>
                            <linearGradient id="paint0_linear_123_127" x1="109.002" y1="102.535" x2="91.2931" y2="138.69" gradientUnits="userSpaceOnUse">
                                <stop stop-color="#3F873F"></stop>
                                <stop offset="0.3" stop-color="#3F8B3D"></stop>
                                <stop offset="0.6" stop-color="#3E9637"></stop>
                                <stop offset="0.9" stop-color="#3DA92E"></stop>
                                <stop offset="1" stop-color="#3DAE2B"></stop>
                            </linearGradient>
                            <linearGradient id="paint1_linear_123_127" x1="98.0591" y1="121.419" x2="147.75" y2="84.6672" gradientUnits="userSpaceOnUse">
                                <stop offset="0.1" stop-color="#3F873F"></stop>
                                <stop offset="0.4" stop-color="#529F44"></stop>
                                <stop offset="0.7" stop-color="#63B649"></stop>
                                <stop offset="0.9" stop-color="#6ABF4B"></stop>
                            </linearGradient>
                            <linearGradient id="paint2_linear_123_127" x1="78.3627" y1="90.0232" x2="123.716" y2="90.0232" gradientUnits="userSpaceOnUse">
                                <stop offset="0.1" stop-color="#6ABF4B"></stop>
                                <stop offset="0.3" stop-color="#63B649"></stop>
                                <stop offset="0.6" stop-color="#529F44"></stop>
                                <stop offset="0.9" stop-color="#3F873F"></stop>
                            </linearGradient>
                            <linearGradient id="paint3_linear_123_127" x1="78.3626" y1="118.814" x2="123.716" y2="118.814" gradientUnits="userSpaceOnUse">
                                <stop offset="0.1" stop-color="#6ABF4B"></stop>
                                <stop offset="0.3" stop-color="#63B649"></stop>
                                <stop offset="0.6" stop-color="#529F44"></stop>
                                <stop offset="0.9" stop-color="#3F873F"></stop>
                            </linearGradient>
                            <linearGradient id="paint4_linear_123_127" x1="78.3621" y1="131.698" x2="123.716" y2="131.698" gradientUnits="userSpaceOnUse">
                                <stop offset="0.1" stop-color="#6ABF4B"></stop>
                                <stop offset="0.3" stop-color="#63B649"></stop>
                                <stop offset="0.6" stop-color="#529F44"></stop>
                                <stop offset="0.9" stop-color="#3F873F"></stop>
                            </linearGradient>
                            <linearGradient id="paint5_linear_123_127" x1="78.3625" y1="137.558" x2="123.716" y2="137.558" gradientUnits="userSpaceOnUse">
                                <stop offset="0.1" stop-color="#6ABF4B"></stop>
                                <stop offset="0.3" stop-color="#63B649"></stop>
                                <stop offset="0.6" stop-color="#529F44"></stop>
                                <stop offset="0.9" stop-color="#3F873F"></stop>
                            </linearGradient>
                            <linearGradient id="paint6_linear_123_127" x1="130.328" y1="101.465" x2="102.394" y2="158.513" gradientUnits="userSpaceOnUse">
                                <stop stop-color="#3F873F"></stop>
                                <stop offset="0.3" stop-color="#3F8B3D"></stop>
                                <stop offset="0.6" stop-color="#3E9637"></stop>
                                <stop offset="0.9" stop-color="#3DA92E"></stop>
                                <stop offset="1" stop-color="#3DAE2B"></stop>
                            </linearGradient>
                            <clipPath id="clip0_123_127">
                                <rect width="206" height="126" fill="white" transform="translate(25 65)"></rect>
                            </clipPath>
                        </defs>
                    </svg>