<?xml version="1.0" standalone="no"?>
<!DOCTYPE svg PUBLIC "-//W3C//DTD SVG 20010904//EN"
 "http://www.w3.org/TR/2001/REC-SVG-20010904/DTD/svg10.dtd">
<svg version="1.0" xmlns="http://www.w3.org/2000/svg"
 width="256.000000pt" height="256.000000pt" viewBox="0 0 256.000000 256.000000"
 preserveAspectRatio="xMidYMid meet">
<metadata>
Created by potrace 1.14, written by Peter Selinger 2001-2017
</metadata>
<g transform="translate(0.000000,256.000000) scale(0.100000,-0.100000)"
fill="#000000" stroke="none">
<path d="M2210 1959 c-19 -11 -40 -27 -46 -34 -17 -23 -105 -65 -134 -65 -33
0 -87 22 -142 56 -21 14 -43 22 -48 19 -10 -6 -3 -164 9 -179 29 -39 8 -35
-62 11 -85 56 -193 102 -305 130 -88 23 -546 26 -632 4 -207 -51 -386 -212
-458 -413 -20 -57 -27 -97 -30 -184 -4 -121 9 -196 53 -293 l25 -53 43 58 c83
113 182 184 322 231 l80 27 385 0 c339 0 393 -2 449 -17 198 -56 354 -190 430
-372 15 -36 30 -68 34 -71 13 -13 19 76 14 205 -6 158 -31 260 -100 400 -23
47 -43 89 -45 94 -2 4 8 7 23 7 50 0 102 39 133 99 29 56 59 153 62 201 5 63
-1 128 -12 143 -12 16 -15 16 -48 -4z"/>
<path d="M840 1171 c-133 -42 -268 -146 -321 -245 l-23 -43 23 -29 c39 -50
123 -114 198 -150 127 -62 149 -64 738 -64 337 0 544 4 567 11 21 5 50 20 65
33 27 24 27 25 16 80 -39 186 -198 352 -392 410 -46 14 -113 16 -435 15 -336
0 -388 -2 -436 -18z"/>
</g>
</svg>
